<svg height="511pt" viewBox="1 -48 511.999 511" width="511pt" xmlns="http://www.w3.org/2000/svg"><path d="m489.515625 407.113281h-467.03125c-8.285156 0-15-6.714843-15-15v-187.738281h497.03125v187.738281c0 8.285157-6.714844 15-15 15zm0 0" fill="#0b9cff"/><path d="m504.515625 253.5625h-497.03125v-230.578125c0-8.285156 6.714844-15 15-15h467.03125c8.285156 0 15 6.714844 15 15zm0 0" fill="#ffa511"/><g fill="#fff"><path d="m125.074219 73.449219c0 8.632812-7 15.632812-15.632813 15.632812-8.636718 0-15.632812-7-15.632812-15.632812 0-8.632813 6.996094-15.632813 15.632812-15.632813 8.632813 0 15.632813 7 15.632813 15.632813zm0 0"/><path d="m168.960938 73.449219c0 8.632812-7 15.632812-15.632813 15.632812s-15.632813-7-15.632813-15.632812c0-8.632813 7-15.632813 15.632813-15.632813s15.632813 7 15.632813 15.632813zm0 0"/><path d="m168.960938 207.625c0 8.632812-7 15.632812-15.632813 15.632812s-15.632813-7-15.632813-15.632812 7-15.632812 15.632813-15.632812 15.632813 7 15.632813 15.632812zm0 0"/><path d="m81.183594 207.625c0 8.632812-7 15.632812-15.632813 15.632812-8.632812 0-15.632812-7-15.632812-15.632812s7-15.632812 15.632812-15.632812c8.632813 0 15.632813 7 15.632813 15.632812zm0 0"/></g><path d="m219.984375 122.597656c0 8.636719-6.996094 15.636719-15.632813 15.636719-8.632812 0-15.632812-7-15.632812-15.636719 0-8.632812 7-15.632812 15.632812-15.632812 8.636719 0 15.632813 7 15.632813 15.632812zm0 0" fill="#f96058"/><path d="m81.183594 43.949219c0 8.632812-7 15.632812-15.632813 15.632812-8.632812 0-15.632812-7-15.632812-15.632812 0-8.636719 7-15.632813 15.632812-15.632813 8.632813 0 15.632813 6.996094 15.632813 15.632813zm0 0" fill="#f96058"/><path d="m123.804688 166.523438c0 8.632812-7 15.632812-15.632813 15.632812-8.636719 0-15.636719-7-15.636719-15.632812 0-8.636719 7-15.636719 15.636719-15.636719 8.632813 0 15.632813 7 15.632813 15.636719zm0 0" fill="#f96058"/><path d="m489.25 7.984375h-232.121094v245.578125h247.386719v-230.3125c0-8.429688-6.835937-15.265625-15.265625-15.265625zm0 0" fill="#fcdc1e"/><path d="m422.0625 204.375v165.550781c0 8.269531-6.703125 14.96875-14.972656 14.96875h-399.605469v7.25c0 8.265625 6.703125 14.96875 14.96875 14.96875h467.09375c8.265625 0 14.96875-6.703125 14.96875-14.96875v-187.769531zm0 0" fill="#0086f4"/><path d="m489.25 7.984375h-67.1875v245.578125h82.453125v-230.3125c0-8.429688-6.835937-15.265625-15.265625-15.265625zm0 0" fill="#ffa511"/><path d="m227.566406 302.832031h-23.214844v-94.929687c0-2.652344 2.148438-4.796875 4.796876-4.796875h13.621093c2.652344 0 4.800781 2.148437 4.800781 4.796875v94.929687zm0 0" fill="#f96058"/><path d="m316.445312 341.429688h-149.058593v-48.785157c0-3.539062 2.871093-6.410156 6.410156-6.410156h136.238281c3.539063 0 6.410156 2.871094 6.410156 6.410156zm0 0" fill="#fcdc1e"/><path d="m310.050781 286.234375h-25.734375v47.105469h-116.929687v8.089844h149.058593v-48.800782c0-3.53125-2.863281-6.394531-6.394531-6.394531zm0 0" fill="#ffa511"/><path d="m383.960938 366.597656h-254.035157c-2.613281 0-4.859375-1.847656-5.367187-4.410156l-8.257813-41.628906c-.671875-3.382813 1.917969-6.535156 5.367188-6.535156h276.054687c3.730469 0 6.367188 3.648437 5.199219 7.1875l-13.765625 41.628906c-.742188 2.242187-2.835938 3.757812-5.195312 3.757812zm0 0" fill="#fcdc1e"/><path d="m397.722656 314.023438h-31.390625l-9.304687 28.148437c-.742188 2.238281-2.835938 3.753906-5.195313 3.753906h-230.5l3.226563 16.265625c.507812 2.558594 2.753906 4.40625 5.367187 4.40625h254.035157c2.359374 0 4.457031-1.515625 5.195312-3.753906l13.765625-41.632812c1.167969-3.539063-1.46875-7.1875-5.199219-7.1875zm0 0" fill="#ffa511"/><path d="m465.847656 118.914062h-16.132812c-3.15625-33.464843-29.675782-60.222656-63.03125-63.742187v-15.421875c0-4.136719-3.351563-7.488281-7.484375-7.488281-4.136719 0-7.484375 3.351562-7.484375 7.488281v15.421875c-33.359375 3.519531-59.878906 30.28125-63.035156 63.742187h-16.128907c-4.136719 0-7.488281 3.347657-7.488281 7.484376 0 4.132812 3.351562 7.484374 7.488281 7.484374h16.300781c3.824219 32.726563 30.027344 58.710938 62.863282 62.175782v16.988281c0 4.132813 3.347656 7.484375 7.484375 7.484375 4.132812 0 7.484375-3.351562 7.484375-7.484375v-16.988281c32.832031-3.464844 59.035156-29.449219 62.859375-62.175782h16.304687c4.132813 0 7.484375-3.351562 7.484375-7.484374 0-4.136719-3.351562-7.484376-7.484375-7.484376zm-31.191406 0h-19.820312c-2.695313-14.375-13.890626-25.785156-28.152344-28.789062v-19.867188c25.089844 3.375 44.945312 23.457032 47.972656 48.65625zm-62.945312 0h-12.71875c2.027343-6.09375 6.734374-10.957031 12.71875-13.214843zm0 14.96875v11.648438c-5.464844-2.0625-9.875-6.285156-12.144532-11.648438zm14.972656 0h12.144531c-2.265625 5.363282-6.679687 9.585938-12.144531 11.648438zm0-14.96875v-13.214843c5.984375 2.257812 10.691406 7.121093 12.71875 13.214843zm-14.972656-48.65625v19.867188c-14.261719 3.003906-25.457032 14.414062-28.152344 28.789062h-19.820313c3.03125-25.199218 22.882813-45.28125 47.972657-48.65625zm-47.769532 63.625h19.945313c3.191406 13.628907 14.085937 24.328126 27.828125 27.222657v19.867187c-24.570313-3.304687-44.128906-22.628906-47.773438-47.089844zm62.742188 47.089844v-19.867187c13.742187-2.894531 24.632812-13.59375 27.824218-27.222657h19.949219c-3.644531 24.460938-23.203125 43.785157-47.773437 47.089844zm0 0" fill="#0b9cff"/><path d="m153.328125 50.332031c-10.210937 0-18.890625 6.65625-21.941406 15.859375-3.054688-9.199218-11.734375-15.859375-21.945313-15.859375-12.746094 0-23.117187 10.371094-23.117187 23.117188 0 12.746093 10.371093 23.117187 23.117187 23.117187 10.210938 0 18.894532-6.65625 21.945313-15.859375 3.050781 9.203125 11.730469 15.859375 21.941406 15.859375 12.746094 0 23.117187-10.371094 23.117187-23.117187 0-12.746094-10.371093-23.117188-23.117187-23.117188zm-43.886719 31.265625c-4.492187 0-8.148437-3.65625-8.148437-8.148437 0-4.492188 3.65625-8.148438 8.148437-8.148438 4.492188 0 8.148438 3.65625 8.148438 8.148438 0 4.492187-3.65625 8.148437-8.148438 8.148437zm43.886719 0c-4.492187 0-8.148437-3.65625-8.148437-8.148437 0-4.492188 3.65625-8.148438 8.148437-8.148438s8.148437 3.65625 8.148437 8.148438c0 4.492187-3.65625 8.148437-8.148437 8.148437zm0 0"/><path d="m153.328125 230.742188c-12.746094 0-23.117187-10.371094-23.117187-23.117188s10.371093-23.117188 23.117187-23.117188 23.117187 10.371094 23.117187 23.117188-10.371093 23.117188-23.117187 23.117188zm0-31.265626c-4.492187 0-8.148437 3.65625-8.148437 8.148438s3.65625 8.148438 8.148437 8.148438 8.148437-3.65625 8.148437-8.148438-3.65625-8.148438-8.148437-8.148438zm0 0"/><path d="m65.550781 230.742188c-12.746093 0-23.117187-10.371094-23.117187-23.117188s10.371094-23.117188 23.117187-23.117188c12.746094 0 23.117188 10.371094 23.117188 23.117188s-10.371094 23.117188-23.117188 23.117188zm0-31.265626c-4.492187 0-8.148437 3.65625-8.148437 8.148438s3.65625 8.148438 8.148437 8.148438c4.492188 0 8.148438-3.65625 8.148438-8.148438s-3.65625-8.148438-8.148438-8.148438zm0 0"/><path d="m204.351562 145.71875c-12.746093 0-23.117187-10.371094-23.117187-23.117188 0-12.75 10.371094-23.117187 23.117187-23.117187 12.75 0 23.121094 10.367187 23.121094 23.117187 0 12.746094-10.371094 23.117188-23.121094 23.117188zm0-31.265625c-4.492187 0-8.148437 3.65625-8.148437 8.148437 0 4.492188 3.65625 8.148438 8.148437 8.148438 4.496094 0 8.148438-3.65625 8.148438-8.148438 0-4.492187-3.652344-8.148437-8.148438-8.148437zm0 0"/><path d="m65.550781 67.066406c-12.746093 0-23.117187-10.371094-23.117187-23.117187 0-12.746094 10.371094-23.121094 23.117187-23.121094 12.746094 0 23.117188 10.371094 23.117188 23.121094 0 12.746093-10.371094 23.117187-23.117188 23.117187zm0-31.265625c-4.492187 0-8.148437 3.65625-8.148437 8.148438 0 4.492187 3.65625 8.148437 8.148437 8.148437 4.492188 0 8.148438-3.65625 8.148438-8.148437 0-4.496094-3.65625-8.148438-8.148438-8.148438zm0 0"/><path d="m108.171875 189.640625c-12.746094 0-23.117187-10.371094-23.117187-23.117187 0-12.75 10.371093-23.121094 23.117187-23.121094s23.117187 10.371094 23.117187 23.121094c0 12.746093-10.371093 23.117187-23.117187 23.117187zm0-31.265625c-4.492187 0-8.148437 3.652344-8.148437 8.148438 0 4.492187 3.65625 8.144531 8.148437 8.144531s8.148437-3.652344 8.148437-8.144531c0-4.496094-3.65625-8.148438-8.148437-8.148438zm0 0"/><path d="m465.847656 118.914062h-16.132812c-1.90625-20.210937-12.34375-37.964843-27.652344-49.644531v20.570313c6.753906 8.078125 11.273438 18.089844 12.59375 29.074218h-12.59375v14.96875h12.390625c-1.542969 10.371094-5.957031 19.8125-12.390625 27.507813v20.574219c14.910156-11.375 25.195312-28.519532 27.480469-48.082032h16.304687c4.132813 0 7.484375-3.351562 7.484375-7.484374 0-4.136719-3.351562-7.484376-7.484375-7.484376zm0 0" fill="#0086f4"/><path d="m489.25.5h-466.796875c-12.378906 0-22.453125 10.074219-22.453125 22.453125v369.191406c0 12.382813 10.074219 22.453125 22.453125 22.453125h467.089844c12.382812 0 22.457031-10.070312 22.457031-22.453125v-368.894531c0-12.546875-10.203125-22.75-22.75-22.75zm.296875 399.128906h-467.09375c-4.125 0-7.484375-3.355468-7.484375-7.484375v-131.097656h154.414062c4.132813 0 7.484376-3.351563 7.484376-7.484375s-3.351563-7.484375-7.484376-7.484375h-154.414062v-223.125c0-4.125 3.359375-7.484375 7.484375-7.484375h466.796875c4.289062 0 7.777344 3.492188 7.777344 7.78125v222.828125h-232.414063v-203.335937c0-4.132813-3.351562-7.484376-7.484375-7.484376-4.136718 0-7.488281 3.351563-7.488281 7.484376v203.335937h-14.585937v-38.1875c0-6.765625-5.507813-12.269531-12.273438-12.269531h-13.640625c-6.765625 0-12.273437 5.503906-12.273437 12.269531v70.859375h-23.085938c-7.652344 0-13.878906 6.226562-13.878906 13.878906v13.910156h-38.234375c-3.894531 0-7.542969 1.722657-10.011719 4.734376-2.472656 3.007812-3.453125 6.925781-2.695312 10.742187l8.257812 41.628906c1.195312 6.046875 6.542969 10.4375 12.707031 10.4375h254.035157c5.601562 0 10.546874-3.574219 12.304687-8.890625l13.761719-41.632812c1.300781-3.9375.628906-8.292969-1.800782-11.65625-2.429687-3.359375-6.355468-5.367188-10.503906-5.367188h-73.792968v-13.90625c0-7.652344-6.226563-13.878906-13.878907-13.878906h-74.996093v-17.703125h261.976562v131.097656c0 4.128907-3.359375 7.484375-7.484375 7.484375zm-180.585937-93.089844h-4.691407c-4.132812 0-7.484375 3.347657-7.484375 7.484376 0 4.132812 3.351563 7.484374 7.484375 7.484374h90.667969l-12.429688 37.605469h-250.929687l-7.457031-37.605469h143.890625c4.132812 0 7.484375-3.351562 7.484375-7.484374 0-4.136719-3.351563-7.484376-7.484375-7.484376h-93.140625v-12.816406h134.089844zm-97.121094-27.789062v-68.160156h8.242187v68.160156zm0 0"/><path d="m465.847656 118.914062h-16.132812c-3.15625-33.464843-29.675782-60.222656-63.03125-63.742187v-15.421875c0-4.136719-3.351563-7.488281-7.484375-7.488281-4.136719 0-7.484375 3.351562-7.484375 7.488281v15.421875c-33.359375 3.519531-59.878906 30.28125-63.035156 63.742187h-16.128907c-4.136719 0-7.488281 3.347657-7.488281 7.484376 0 4.132812 3.351562 7.484374 7.488281 7.484374h16.300781c3.824219 32.726563 30.027344 58.710938 62.863282 62.175782v16.988281c0 4.132813 3.347656 7.484375 7.484375 7.484375 4.132812 0 7.484375-3.351562 7.484375-7.484375v-16.988281c32.832031-3.464844 59.035156-29.449219 62.859375-62.175782h16.304687c4.132813 0 7.484375-3.351562 7.484375-7.484374 0-4.136719-3.351562-7.484376-7.484375-7.484376zm-31.191406 0h-19.820312c-2.695313-14.375-13.890626-25.785156-28.152344-28.789062v-19.867188c25.089844 3.375 44.945312 23.457032 47.972656 48.65625zm-62.945312 0h-12.71875c2.027343-6.09375 6.734374-10.957031 12.71875-13.214843zm0 14.96875v11.648438c-5.464844-2.0625-9.875-6.285156-12.144532-11.648438zm14.972656 0h12.144531c-2.265625 5.363282-6.679687 9.585938-12.144531 11.648438zm0-14.96875v-13.214843c5.984375 2.257812 10.691406 7.121093 12.71875 13.214843zm-14.972656-48.65625v19.867188c-14.261719 3.003906-25.457032 14.414062-28.152344 28.789062h-19.820313c3.03125-25.199218 22.882813-45.28125 47.972657-48.65625zm-47.769532 63.625h19.945313c3.191406 13.628907 14.085937 24.328126 27.828125 27.222657v19.867187c-24.570313-3.304687-44.128906-22.628906-47.773438-47.089844zm62.742188 47.089844v-19.867187c13.742187-2.894531 24.632812-13.59375 27.824218-27.222657h19.949219c-3.644531 24.460938-23.203125 43.785157-47.773437 47.089844zm0 0"/></svg>