<svg height="419pt" viewBox="-3 0 419 419.80084" width="419pt" xmlns="http://www.w3.org/2000/svg"><path d="m325.421875 154.53125c12.324219 0 22.316406-9.988281 22.320313-22.316406 0-12.324219-9.992188-22.316406-22.320313-22.316406-12.324219.003906-22.3125 9.996093-22.3125 22.320312.003906 12.320312 9.992187 22.308594 22.3125 22.3125zm-141.632813-21.632812h-39.75c-3.902343 0-7.070312 3.167968-7.070312 7.070312v21.152344h-41.910156c-16.566406 0-30 13.429687-30 30v88.777344c0 16.570312 13.433594 30 30 30h178.050781c16.570313 0 30-13.429688 30-30v.242187c24.648437 0 44.632813-19.980469 44.632813-44.628906 0-24.648438-19.984376-44.632813-44.632813-44.632813v.242188c0-16.570313-13.429687-30-30-30h-41.910156v-21.152344c-.003907-3.902344-3.164063-7.066406-7.070313-7.070312zm222.613282 73.101562c.117187 47.492188-16.828125 93.445312-47.75 129.488281l33.296875 78.3125-116.128907-20.320312c-22.210937 8.269531-45.71875 12.507812-69.417968 12.519531-110.460938 0-200-89.539062-200-200s89.539062-200 200-200c110.457031 0 200 89.539062 200 200zm0 0" fill="#f8ec7d"/><path d="m325.421875 154.53125c-12.324219-.003906-22.3125-9.996094-22.3125-22.320312.003906-12.324219 9.996094-22.3125 22.320313-22.3125 12.324218.003906 22.3125 9.996093 22.3125 22.320312-.003907 12.324219-9.996094 22.316406-22.320313 22.3125zm0 0" fill="#e48e66"/><path d="m303.109375 190.878906c24.648437 0 44.632813 19.984375 44.632813 44.632813 0 24.648437-19.984376 44.628906-44.632813 44.628906zm0 0" fill="#6fe3ff"/><path d="m136.96875 161.121094h136.140625c16.570313 0 30 13.429687 30 30v88.777344c0 16.570312-13.429687 30-30 30h-178.050781c-16.566406 0-30-13.429688-30-30v-88.777344c0-16.570313 13.433594-30 30-30zm125.320312 79.097656v-11.910156c0-7.730469-6.265624-14-14-14h-.269531c-7.730469 0-14 6.269531-14 14v11.910156zm-49.9375 22.832031v-.261719h-56.53125v.261719c-.003906 15.464844 12.535157 28.003907 28 28h.53125c15.464844.003907 28.003907-12.535156 28-28zm-78.210937-22.832031v-11.910156c0-7.730469-6.269531-14-14-14h-.261719c-7.730468 0-14 6.269531-14 14v11.910156zm0 0" fill="#e48e66"/><path d="m262.289062 228.308594v11.910156h-28.269531v-11.910156c0-7.730469 6.269531-14 14-14h.269531c7.734376 0 14 6.269531 14 14zm0 0" fill="#6fe3ff"/><path d="m231.199219 139.96875v21.152344h-94.230469v-21.152344c0-3.902344 3.167969-7.070312 7.070312-7.070312h80.089844c3.90625.003906 7.066406 3.167968 7.070313 7.070312zm0 0" fill="#6fe3ff"/><path d="m212.351562 262.789062v.261719c.003907 15.464844-12.535156 28.003907-28 28h-.53125c-15.464843.003907-28.003906-12.535156-28-28v-.261719zm0 0" fill="#6fe3ff"/><path d="m134.140625 228.308594v11.910156h-28.261719v-11.910156c0-7.730469 6.269532-14 14-14h.261719c7.730469 0 14 6.269531 14 14zm0 0" fill="#6fe3ff"/><g fill="#63316d"><path d="m412.402344 206c0-113.589844-92.414063-206-206-206-113.589844 0-206 92.410156-206 206s92.410156 206 206 206c23.863281-.007812 47.539062-4.179688 69.96875-12.332031l114.546875 20.042969c2.164062.378906 4.363281-.457032 5.730469-2.179688 1.367187-1.722656 1.683593-4.054688.824218-6.078125l-31.863281-74.929687c30.359375-36.710938 46.914063-82.886719 46.792969-130.523438zm-58.320313 125.601562c-1.472656 1.730469-1.84375 4.144532-.953125 6.238282l28.980469 68.148437-105.253906-18.417969c-1.046875-.183593-2.125-.085937-3.121094.285157-21.542969 8.023437-44.34375 12.132812-67.332031 12.144531-106.972656 0-194-87.027344-194-194s87.027344-194 194-194c106.96875 0 194 87.027344 194 194 .117187 46.066406-16.320313 90.640625-46.320313 125.601562zm0 0"/><path d="m353.742188 132.21875c0-14.855469-11.476563-27.1875-26.296876-28.25-14.820312-1.058594-27.9375 9.515625-30.046874 24.222656-2.113282 14.707032 7.503906 28.542969 22.023437 31.691406v27.707032c-3.503906-1.195313-7.128906-2.003906-10.808594-2.40625-2.921875-17.335938-17.917969-30.039063-35.5-30.0625h-35.914062v-15.152344c-.007813-7.214844-5.855469-13.058594-13.070313-13.070312h-34.339844v-14.726563c0-3.316406-2.683593-6-6-6-3.3125 0-6 2.683594-6 6v14.726563h-33.75c-7.214843.011718-13.058593 5.855468-13.070312 13.070312v15.152344h-35.910156c-19.871094.019531-35.976563 16.125-36 36v88.777344c.023437 19.875 16.128906 35.980468 36 36h178.050781c17.582031-.023438 32.582031-12.726563 35.5-30.0625 21.121094-2.300782 38.554687-17.546876 43.648437-38.171876 5.097657-20.621093-3.226562-42.234374-20.839843-54.109374v-33.671876c13.015625-2.832031 22.304687-14.34375 22.324219-27.664062zm-210.773438 7.75c.003906-.589844.480469-1.066406 1.070312-1.070312h80.089844c.59375.003906 1.070313.480468 1.070313 1.070312v15.152344h-82.230469zm130.140625 163.929688h-178.050781c-13.246094-.011719-23.984375-10.75-24-24v-88.777344c.015625-13.25 10.753906-23.984375 24-24h178.050781c13.25.015625 23.984375 10.75 24 24v88.777344c-.015625 13.25-10.75 23.988281-24 24zm68.632813-68.386719c-.023438 19.007812-13.855469 35.1875-32.632813 38.164062v-76.332031c18.777344 2.980469 32.605469 19.15625 32.632813 38.167969zm-32.632813-103.292969c0-9.011719 7.300781-16.316406 16.3125-16.320312 9.015625 0 16.320313 7.304687 16.320313 16.316406-.003907 9.011718-7.308594 16.316406-16.320313 16.316406-9.003906-.015625-16.296875-7.308594-16.3125-16.3125zm0 0"/><path d="m120.140625 208.308594h-.261719c-11.039062.015625-19.984375 8.960937-20 20v11.910156c0 3.316406 2.6875 6 6 6h28.261719c3.3125 0 6-2.683594 6-6v-11.910156c-.011719-11.039063-8.960937-19.984375-20-20zm8 25.910156h-16.261719v-5.910156c.007813-4.414063 3.585938-7.992188 8-8h.261719c4.417969.007812 7.996094 3.585937 8 8zm0 0"/><path d="m248.289062 208.308594h-.269531c-11.039062.015625-19.988281 8.960937-20 20v11.910156c0 3.316406 2.6875 6 6 6h28.269531c3.316407 0 6-2.683594 6-6v-11.910156c-.011718-11.039063-8.957031-19.984375-20-20zm8 25.910156h-16.269531v-5.910156c.003907-4.414063 3.585938-7.992188 8-8h.269531c4.417969.007812 7.996094 3.585937 8 8zm0 0"/><path d="m212.351562 256.789062h-56.53125c-3.3125 0-6 2.6875-6 6v.261719c.019532 18.769531 15.230469 33.976563 34 34h.53125c18.769532-.023437 33.976563-15.230469 34-34v-.261719c0-3.3125-2.6875-6-6-6zm-28 28.261719h-.53125c-9.9375-.011719-18.636718-6.671875-21.242187-16.261719h43.011719c-2.605469 9.589844-11.304688 16.25-21.238282 16.261719zm0 0"/></g></svg>